<?xml version="1.0" encoding="iso-8859-1"?>
<!-- Generator: Adobe Illustrator 19.0.0, SVG Export Plug-In . SVG Version: 6.00 Build 0)  -->
<svg version="1.1" id="Capa_1" xmlns="http://www.w3.org/2000/svg" xmlns:xlink="http://www.w3.org/1999/xlink" x="0px" y="0px"
	 viewBox="0 0 512 512" style="enable-background:new 0 0 512 512;" xml:space="preserve">
<circle style="fill:#C1DFF2;" cx="256" cy="292.51" r="116.699"/>
<circle style="fill:#DEEEF9;" cx="256" cy="128.433" r="91.058"/>
<path style="fill:#C3E0ED;" d="M195.846,128.431c0-45.023,32.677-82.408,75.607-89.748c-5.023-0.859-10.184-1.311-15.453-1.311
	c-50.291,0-91.06,40.768-91.06,91.06s40.769,91.06,91.06,91.06c5.268,0,10.43-0.453,15.453-1.311
	C228.523,210.839,195.846,173.454,195.846,128.431z"/>
<circle style="fill:#89BEE0;" cx="170.845" cy="250.592" r="91.058"/>
<path style="fill:#71B0D3;" d="M110.693,250.589c0-45.023,32.677-82.408,75.607-89.748c-5.023-0.858-10.184-1.311-15.453-1.311
	c-50.291,0-91.06,40.768-91.06,91.06s40.769,91.06,91.06,91.06c5.268,0,10.43-0.453,15.453-1.311
	C143.37,332.998,110.693,295.613,110.693,250.589z"/>
<circle style="fill:#ACD7F2;" cx="341.155" cy="250.592" r="91.058"/>
<path style="fill:#9BCFEA;" d="M280.997,250.589c0-45.023,32.677-82.408,75.607-89.748c-5.023-0.858-10.184-1.311-15.453-1.311
	c-50.291,0-91.06,40.768-91.06,91.06s40.769,91.06,91.06,91.06c5.268,0,10.43-0.453,15.453-1.311
	C313.675,332.998,280.997,295.613,280.997,250.589z"/>
<circle style="fill:#CCE5F2;" cx="91.058" cy="383.567" r="91.058"/>
<path style="fill:#B3D8E8;" d="M30.905,383.569c0-45.023,32.677-82.408,75.607-89.748c-5.023-0.859-10.184-1.311-15.453-1.311
	c-50.29,0-91.06,40.768-91.06,91.06s40.769,91.06,91.06,91.06c5.268,0,10.43-0.453,15.453-1.311
	C63.583,465.978,30.905,428.592,30.905,383.569z"/>
<circle style="fill:#CCE5F2;" cx="420.942" cy="383.567" r="91.058"/>
<path style="fill:#B3D8E8;" d="M360.786,383.569c0-45.023,32.677-82.408,75.607-89.748c-5.023-0.859-10.184-1.311-15.453-1.311
	c-50.291,0-91.06,40.768-91.06,91.06s40.769,91.06,91.06,91.06c5.268,0,10.43-0.453,15.453-1.311
	C393.462,465.978,360.786,428.592,360.786,383.569z"/>
<circle style="fill:#DEEEF9;" cx="256" cy="383.567" r="91.058"/>
<path style="fill:#C3E0ED;" d="M195.846,383.569c0-45.023,32.677-82.408,75.607-89.748c-5.023-0.859-10.184-1.311-15.453-1.311
	c-50.291,0-91.06,40.768-91.06,91.06s40.769,91.06,91.06,91.06c5.268,0,10.43-0.453,15.453-1.311
	C228.523,465.978,195.846,428.592,195.846,383.569z"/>
<g>
</g>
<g>
</g>
<g>
</g>
<g>
</g>
<g>
</g>
<g>
</g>
<g>
</g>
<g>
</g>
<g>
</g>
<g>
</g>
<g>
</g>
<g>
</g>
<g>
</g>
<g>
</g>
<g>
</g>
</svg>
