<?xml version="1.0" encoding="iso-8859-1"?>
<!-- Generator: Adobe Illustrator 19.0.0, SVG Export Plug-In . SVG Version: 6.00 Build 0)  -->
<svg version="1.1" id="Capa_1" xmlns="http://www.w3.org/2000/svg" xmlns:xlink="http://www.w3.org/1999/xlink" x="0px" y="0px"
	 viewBox="0 0 512 512" style="enable-background:new 0 0 512 512;" xml:space="preserve">
<path style="fill:#BDDEF6;" d="M409.6,16.629l42.264,182.062c2.197,9.465,15.675,9.465,17.873,0L512,16.629H409.6z"/>
<path style="fill:#8CC9EA;" d="M440.505,16.629H409.6l42.264,182.062c2.197,9.465,15.675,9.465,17.873,0l6.517-28.072
	L440.505,16.629z"/>
<path style="fill:#80C7EA;" d="M307.2,16.629l42.125,283.855c1.548,10.436,16.6,10.436,18.149,0L409.6,16.629H307.2z"/>
<path style="fill:#2C9CCC;" d="M338.105,16.629H307.2l42.126,283.855c1.548,10.436,16.6,10.436,18.149,0l6.379-42.979
	L338.105,16.629z"/>
<path style="fill:#BDDEF6;" d="M204.8,16.629l42.196,215.958c1.932,9.886,16.075,9.886,18.007,0L307.2,16.629H204.8z"/>
<path style="fill:#8CC9EA;" d="M235.705,16.629H204.8l42.196,215.958c1.932,9.886,16.075,9.886,18.007,0l6.449-33.007
	L235.705,16.629z"/>
<path style="fill:#80C7EA;" d="M102.4,16.629l42.106,317.834c1.407,10.625,16.781,10.625,18.189,0L204.8,16.629H102.4z"/>
<path style="fill:#2C9CCC;" d="M133.305,16.629H102.4l42.106,317.834c1.407,10.625,16.781,10.625,18.189,0l6.358-47.996
	L133.305,16.629z"/>
<path style="fill:#BDDEF6;" d="M0,16.629l42.344,156.676c2.444,9.041,15.268,9.041,17.712,0L102.4,16.629H0z"/>
<path style="fill:#8CC9EA;" d="M30.905,16.629H0l42.345,156.676c2.444,9.04,15.268,9.04,17.712,0l6.596-24.408L30.905,16.629z"/>
<g>
	<path style="fill:#80C7EA;" d="M51.2,277.923c-12.147,19.492-18.033,34.094-17.555,44.831c0.972,21.875,34.139,21.875,35.112,0
		C69.233,312.018,63.347,297.415,51.2,277.923z"/>
	<path style="fill:#80C7EA;" d="M153.6,434.133c-12.147,19.492-18.033,34.094-17.555,44.831c0.973,21.875,34.139,21.875,35.112,0
		C171.633,468.227,165.747,453.624,153.6,434.133z"/>
	<path style="fill:#80C7EA;" d="M256,311.813c-12.147,19.492-18.033,34.094-17.555,44.831c0.972,21.875,34.139,21.875,35.112,0
		C274.033,345.907,268.147,331.304,256,311.813z"/>
	<path style="fill:#80C7EA;" d="M358.4,396.497c-12.147,19.492-18.033,34.094-17.555,44.831c0.972,21.875,34.139,21.875,35.112,0
		C376.433,430.591,370.547,415.989,358.4,396.497z"/>
	<path style="fill:#80C7EA;" d="M460.8,301.331c-12.147,19.492-18.033,34.094-17.555,44.831c0.973,21.875,34.139,21.875,35.112,0
		C478.833,335.426,472.947,320.823,460.8,301.331z"/>
</g>
<g>
</g>
<g>
</g>
<g>
</g>
<g>
</g>
<g>
</g>
<g>
</g>
<g>
</g>
<g>
</g>
<g>
</g>
<g>
</g>
<g>
</g>
<g>
</g>
<g>
</g>
<g>
</g>
<g>
</g>
</svg>
