<?xml version="1.0" encoding="iso-8859-1"?>
<!-- Generator: Adobe Illustrator 19.0.0, SVG Export Plug-In . SVG Version: 6.00 Build 0)  -->
<svg version="1.1" id="Capa_1" xmlns="http://www.w3.org/2000/svg" xmlns:xlink="http://www.w3.org/1999/xlink" x="0px" y="0px"
	 viewBox="0 0 512.001 512.001" style="enable-background:new 0 0 512.001 512.001;" xml:space="preserve">
<g>
	<path style="fill:#80C7EA;" d="M430.39,146.395l-129.056-22.07l-129.024,22.07c-23.937,18.572-43.768,42.191-57.885,69.261
		l186.924,34.631l186.892-34.631C474.137,188.586,454.316,164.966,430.39,146.395z"/>
	<path style="fill:#80C7EA;" d="M510.148,284.917L301.35,250.286L92.531,284.917c-1.228,9.153-1.852,18.508-1.852,28l71.102,41.26
		l139.553,27.784L512,354.177v-41.26C512,303.425,511.376,294.07,510.148,284.917z"/>
</g>
<g>
	<path style="fill:#BDDEF6;" d="M430.39,146.395H172.31c35.641-27.673,80.414-44.138,129.029-44.138S394.739,118.723,430.39,146.395
		z"/>
	<path style="fill:#BDDEF6;" d="M510.148,284.917H92.531c1.355-10.286,3.471-20.339,6.265-30.096
		c3.916-13.673,9.175-26.784,15.63-39.164h373.818C499.323,236.873,506.878,260.217,510.148,284.917z"/>
	<polygon style="fill:#BDDEF6;" points="512,354.177 512,409.745 257.54,409.745 161.781,354.177 	"/>
</g>
<g>
	<path style="fill:#2C9CCC;" d="M378.881,146.395c23.926,18.572,43.747,42.191,57.853,69.26c1.502,2.876,2.933,5.795,4.303,8.747
		l47.206-8.747c-6.172-11.843-13.437-23.026-21.661-33.414c-3.524-4.452-7.226-8.759-11.092-12.908
		c-2.578-2.767-5.229-5.464-7.95-8.088c-5.443-5.249-11.168-10.208-17.149-14.851l-68.11-11.647
		C368.005,138.368,373.547,142.255,378.881,146.395z"/>
	<path style="fill:#2C9CCC;" d="M511.274,295.296c-0.289-3.486-0.665-6.948-1.125-10.38l-52.863-8.768
		c0.51,2.903,0.964,5.825,1.354,8.768c1.228,9.154,1.852,18.508,1.852,28.001v48.054l51.509-6.793v-41.26
		c0-3.56-0.088-7.1-0.263-10.618C511.622,299.954,511.466,297.62,511.274,295.296z"/>
</g>
<g>
	<path style="fill:#8CC9EA;" d="M488.243,215.656h-51.509c11.08,21.218,18.635,44.561,21.905,69.26l0,0h51.509
		C506.878,260.217,499.323,236.873,488.243,215.656z"/>
	<path style="fill:#8CC9EA;" d="M427.021,143.833c-2.263-1.685-4.563-3.326-6.895-4.921c-2.332-1.596-4.699-3.145-7.097-4.648
		c-32.38-20.285-70.671-32.008-111.69-32.008c-1.971,0-3.932,0.036-5.89,0.091c-0.448,0.012-0.896,0.028-1.343,0.043
		c-1.881,0.064-3.758,0.145-5.627,0.259c-0.053,0.003-0.105,0.005-0.158,0.008c-2.093,0.129-4.177,0.289-6.254,0.478
		c-0.11,0.01-0.22,0.022-0.331,0.032c-2.059,0.191-4.11,0.408-6.152,0.657c38.628,4.708,74.038,19.862,103.295,42.571h51.509
		C429.275,145.53,428.153,144.676,427.021,143.833z"/>
</g>
<path style="fill:#80C7EA;" d="M257.544,409.74v-64.602c0-50.079-40.597-90.677-90.677-90.677H90.677l90.677,155.278L257.544,409.74
	L257.544,409.74z"/>
<path style="fill:#BDDEF6;" d="M42.329,409.745H0V345.14c0-50.085,40.593-90.68,90.68-90.68c50.075,0,90.668,40.593,90.668,90.68
	v64.605h-42.329l-48.342-36.458L42.329,409.745z"/>
<path style="fill:#2C9CCC;" d="M139.019,345.14v64.605h-96.69V345.14c0-26.657,21.694-48.351,48.351-48.351
	C117.336,296.789,139.019,318.483,139.019,345.14z"/>
<rect x="460.491" y="354.177" style="fill:#8CC9EA;" width="51.509" height="55.567"/>
<g>
</g>
<g>
</g>
<g>
</g>
<g>
</g>
<g>
</g>
<g>
</g>
<g>
</g>
<g>
</g>
<g>
</g>
<g>
</g>
<g>
</g>
<g>
</g>
<g>
</g>
<g>
</g>
<g>
</g>
</svg>
